<mxfile host="app.diagrams.net" modified="2023-12-15T03:36:26.843Z" agent="Mozilla/5.0 (Windows NT 10.0; Win64; x64) AppleWebKit/537.36 (KHTML, like Gecko) Chrome/120.0.0.0 Safari/537.36" version="22.1.9" etag="H3WBKDuSoXs1TdWWVRt2" type="github">
  <diagram name="第 1 页" id="krcluFgWIeR-tyFEZ_Hb">
    <mxGraphModel>
      <root>
        <mxCell id="0" />
        <mxCell id="1" parent="0" />
      </root>
    </mxGraphModel>
  </diagram>
</mxfile>
